<?xml version="1.0" encoding="utf-8"?>
<!-- Generator: Adobe Illustrator 19.2.0, SVG Export Plug-In . SVG Version: 6.00 Build 0)  -->
<svg version="1.1" id="Layer_1" xmlns:sketch="http://www.bohemiancoding.com/sketch/ns"
	 xmlns="http://www.w3.org/2000/svg" xmlns:xlink="http://www.w3.org/1999/xlink" x="0px" y="0px" viewBox="0 0 128 128"
	 style="enable-background:new 0 0 128 128;" xml:space="preserve">
<style type="text/css">
	.st0{fill:#616E7D;}
	.st1{fill:#FFFFFF;}
</style>
<g id="Status" sketch:type="MSPage">
	<g id="Expired" sketch:type="MSArtboardGroup">
		<g id="expired" sketch:type="MSLayerGroup">
			<circle id="Oval-7-Copy" sketch:type="MSShapeGroup" class="st0" cx="64" cy="64" r="64">
			</circle>
			<path id="Path" sketch:type="MSShapeGroup" class="st1" d="M82.1,74.8c0,0.9-0.3,1.6-0.9,2.2l-4.3,4.3c-0.6,0.6-1.3,0.9-2.2,0.9
				c-0.8,0-1.5-0.3-2.1-0.9L64,72.6l-8.6,8.6c-0.6,0.6-1.3,0.9-2.1,0.9c-0.9,0-1.6-0.3-2.2-0.9l-4.3-4.3c-0.6-0.6-0.9-1.3-0.9-2.2
				c0-0.8,0.3-1.5,0.9-2.1l8.6-8.6l-8.6-8.6c-0.6-0.6-0.9-1.3-0.9-2.1c0-0.9,0.3-1.6,0.9-2.2l4.3-4.3c0.6-0.6,1.3-0.9,2.2-0.9
				c0.8,0,1.5,0.3,2.1,0.9l8.6,8.6l8.6-8.6c0.6-0.6,1.3-0.9,2.1-0.9c0.9,0,1.6,0.3,2.2,0.9l4.3,4.3c0.6,0.6,0.9,1.3,0.9,2.2
				c0,0.8-0.3,1.5-0.9,2.1L72.6,64l8.6,8.6C81.8,73.2,82.1,73.9,82.1,74.8z"/>
		</g>
	</g>
</g>
</svg>
