<?xml version="1.0" encoding="utf-8"?>
<!-- Generator: Adobe Illustrator 19.2.0, SVG Export Plug-In . SVG Version: 6.00 Build 0)  -->
<svg version="1.1" id="Layer_1" xmlns:sketch="http://www.bohemiancoding.com/sketch/ns"
	 xmlns="http://www.w3.org/2000/svg" xmlns:xlink="http://www.w3.org/1999/xlink" x="0px" y="0px" viewBox="0 0 128 128"
	 style="enable-background:new 0 0 128 128;" xml:space="preserve">
<style type="text/css">
	.st0{fill:#4CBB87;}
	.st1{fill:#FFFFFF;}
</style>
<g id="Status" sketch:type="MSPage">
	<g id="Delivered" sketch:type="MSArtboardGroup">
		<g id="Delived" sketch:type="MSLayerGroup">
			<path id="Oval-7-Copy-2" sketch:type="MSShapeGroup" class="st0" d="M64,128c35.3,0,64-28.7,64-64S99.3,0,64,0S0,28.7,0,64
				S28.7,128,64,128z"/>
			<path id="Shape" sketch:type="MSShapeGroup" class="st1" d="M82.5,53.2l-3.4-3.4c-0.5-0.5-1-0.7-1.7-0.7c-0.7,0-1.2,0.2-1.7,0.7
				L59.5,66.3l-7.3-7.4c-0.5-0.5-1-0.7-1.7-0.7c-0.7,0-1.2,0.2-1.7,0.7l-3.4,3.4c-0.5,0.5-0.7,1-0.7,1.7c0,0.7,0.2,1.2,0.7,1.7
				l9,9.1l3.4,3.4c0.5,0.5,1,0.7,1.7,0.7c0.7,0,1.2-0.2,1.7-0.7l3.4-3.4l17.9-18.2c0.5-0.5,0.7-1,0.7-1.7
				C83.2,54.2,83,53.7,82.5,53.2L82.5,53.2z"/>
		</g>
	</g>
</g>
</svg>
