<?xml version="1.0" encoding="utf-8"?>
<!-- Generator: Adobe Illustrator 19.2.0, SVG Export Plug-In . SVG Version: 6.00 Build 0)  -->
<svg version="1.1" id="Layer_1" xmlns:sketch="http://www.bohemiancoding.com/sketch/ns"
	 xmlns="http://www.w3.org/2000/svg" xmlns:xlink="http://www.w3.org/1999/xlink" x="0px" y="0px" viewBox="0 0 128 128"
	 style="enable-background:new 0 0 128 128;" xml:space="preserve">
<style type="text/css">
	.st0{fill:#D26759;}
	.st1{fill:#FFFFFF;}
</style>
<g id="Status" sketch:type="MSPage">
	<g id="Exception" sketch:type="MSArtboardGroup">
		<g sketch:type="MSLayerGroup">
			<path id="Oval-7-Copy-3" sketch:type="MSShapeGroup" class="st0" d="M64,128c35.3,0,64-28.7,64-64S99.3,0,64,0S0,28.7,0,64
				S28.7,128,64,128z"/>
			<path id="Rectangle-10" sketch:type="MSShapeGroup" class="st1" d="M59.7,37.3c0-0.6,0.4-1,1-1h6.5c0.5,0,1,0.4,1,1v36.4
				c0,0.6-0.4,1-1,1h-6.5c-0.5,0-1-0.4-1-1V37.3z M59.7,84.2c0-0.6,0.4-1,1-1h6.5c0.5,0,1,0.4,1,1v6.7c0,0.6-0.4,1-1,1h-6.5
				c-0.5,0-1-0.4-1-1V84.2z"/>
		</g>
	</g>
</g>
</svg>
