<?xml version="1.0" encoding="utf-8"?>
<!-- Generator: Adobe Illustrator 19.2.0, SVG Export Plug-In . SVG Version: 6.00 Build 0)  -->
<svg version="1.1" id="Layer_1" xmlns:sketch="http://www.bohemiancoding.com/sketch/ns"
	 xmlns="http://www.w3.org/2000/svg" xmlns:xlink="http://www.w3.org/1999/xlink" x="0px" y="0px" viewBox="0 0 128 128"
	 style="enable-background:new 0 0 128 128;" xml:space="preserve">
<style type="text/css">
	.st0{fill:#65AEE0;}
	.st1{fill:#FFFFFF;}
</style>
<g id="Status" sketch:type="MSPage">
	<g id="In-Transit" sketch:type="MSArtboardGroup">
		<g id="Group" sketch:type="MSLayerGroup">
			<g id="Transit" sketch:type="MSShapeGroup">
				<path id="Oval-7" class="st0" d="M64,128c35.3,0,64-28.7,64-64S99.3,0,64,0S0,28.7,0,64S28.7,128,64,128z"/>
			</g>
			<path id="Rectangle-16" sketch:type="MSShapeGroup" class="st1" d="M75,81H55c0-0.2,0-0.3,0-0.5C55,74.7,50.3,70,44.5,70
				c-5.6,0-10.2,4.4-10.5,10h-4V63.1L44.6,44H53V34h47v47h-4c0-0.2,0-0.3,0-0.5C96,74.7,91.3,70,85.5,70S75,74.7,75,80.5
				C75,80.7,75,80.8,75,81z M38,62h8V51L38,62z M85.5,89c4.7,0,8.5-3.8,8.5-8.5S90.2,72,85.5,72S77,75.8,77,80.5S80.8,89,85.5,89z
				 M44.5,89c4.7,0,8.5-3.8,8.5-8.5S49.2,72,44.5,72S36,75.8,36,80.5S39.8,89,44.5,89z"/>
		</g>
	</g>
</g>
</svg>
