<?xml version="1.0" encoding="utf-8"?>
<!-- Generator: Adobe Illustrator 19.2.0, SVG Export Plug-In . SVG Version: 6.00 Build 0)  -->
<svg version="1.1" id="Layer_1" xmlns:sketch="http://www.bohemiancoding.com/sketch/ns"
	 xmlns="http://www.w3.org/2000/svg" xmlns:xlink="http://www.w3.org/1999/xlink" x="0px" y="0px" viewBox="0 0 128 128"
	 style="enable-background:new 0 0 128 128;" xml:space="preserve">
<style type="text/css">
	.st0{fill:#F5A551;}
	.st1{fill:#FFFFFF;}
</style>
<g id="Status" sketch:type="MSPage">
	<g id="Out-for-delivery" sketch:type="MSArtboardGroup">
		<g id="out-for-delivery" sketch:type="MSLayerGroup">
			<ellipse id="Oval-7-Copy" sketch:type="MSShapeGroup" class="st0" cx="64" cy="64" rx="64" ry="64">
			</ellipse>
			<path id="Shape" sketch:type="MSShapeGroup" class="st1" d="M41,50c-2.5-0.8-2.5-2.4,0-3l19-10c2.3-1.3,5.7-1.3,8,0l19,10
				c2.5,0.8,2.5,2.4,0,3L68,60c-2.3,1.3-5.7,1.3-8,0L41,50L41,50z M65,70c0-2.5,1.7-5.3,4-6l20-11c2.3-0.7,4,0.4,4,3v19
				c0,2.7-1.7,5.5-4,7L69,92c-2.3,0.7-4-0.4-4-3V70L65,70z M37,81c-2.3-0.7-4-3.4-4-6V56c0-2.5,1.7-3.6,4-3l20,10c2.3,1.6,4,4.2,4,7
				v19c0,2.5-1.7,3.6-4,3L37,81L37,81z"/>
		</g>
	</g>
</g>
</svg>
